<svg width="200" height="200" viewBox="0 0 200 200" fill="none" xmlns="http://www.w3.org/2000/svg">
<path d="M91.4064 23.3672C98.8517 18.082 108.051 15.3242 117.18 15.6367C126.918 15.8828 136.508 19.6523 143.824 26.0859C151.695 32.9219 156.914 42.7344 158.086 53.1016C159.457 64.1719 156.199 75.6953 149.274 84.4375C149.141 84.6055 148.879 84.9414 148.746 85.1094C148.078 85.7578 147.453 86.4453 146.922 87.2109C146.317 87.8711 145.684 88.5078 145.02 89.1172C144.258 89.6445 143.57 90.2695 142.934 90.9414C142.742 91.0899 142.36 91.3906 142.168 91.543C140.184 93.0781 138.082 94.4609 135.875 95.6484C123.637 102.309 108.098 102.277 95.8556 95.6406C87.7541 91.2656 81.0744 84.2695 77.2502 75.8789C72.9689 66.6641 72.2111 55.8906 75.0783 46.1484C77.7345 36.9961 83.6056 28.8359 91.4064 23.3672ZM111.551 28.0313C101.727 29.3516 92.8517 35.8984 88.5666 44.8125C85.1916 51.6992 84.5861 59.8789 86.883 67.1914C89.0041 74.1406 93.7658 80.2109 99.9337 84.0312C104.949 87.1562 110.906 88.7188 116.809 88.5234C123.277 88.3438 129.676 86.0273 134.727 81.9805C139.477 78.2227 143.074 73.0195 144.856 67.2305C146.805 61.0313 146.692 54.207 144.543 48.0742C142.004 40.7305 136.512 34.4648 129.574 30.9688C124.055 28.1641 117.668 27.168 111.551 28.0313Z" fill="#1C8FC7"/>
<path d="M111.551 28.0312C117.669 27.1679 124.055 28.164 129.575 30.9687C136.512 34.4648 142.004 40.7304 144.544 48.0742C146.692 54.207 146.805 61.0312 144.856 67.2304C143.075 73.0195 139.477 78.2226 134.727 81.9804C129.676 86.0273 123.278 88.3437 116.809 88.5234C110.907 88.7187 104.95 87.1562 99.9341 84.0312C93.7662 80.2109 89.0044 74.1406 86.8833 67.1914C84.5865 59.8789 85.1919 51.6992 88.5669 44.8125C92.8521 35.8984 101.727 29.3515 111.551 28.0312ZM105.215 47.3945C104.305 48.2187 104.294 49.7968 105.192 50.6328C107.653 53.164 110.211 55.5976 112.649 58.1523C110.192 60.5859 107.758 63.039 105.309 65.4804C104.294 66.332 104.254 68.0508 105.282 68.9101C106.18 69.7656 107.708 69.6328 108.508 68.707C110.958 66.2578 113.43 63.8281 115.844 61.3398C118.407 63.789 120.836 66.3672 123.387 68.8281C124.169 69.6484 125.563 69.707 126.419 68.9609C127.426 68.1718 127.516 66.5156 126.586 65.6289C124.126 63.0976 121.606 60.625 119.11 58.1328C121.544 55.6367 124.047 53.207 126.489 50.7226C127.477 49.8594 127.485 48.1679 126.473 47.3242C125.583 46.5117 124.079 46.6054 123.286 47.5078C120.813 49.957 118.356 52.4218 115.915 54.8984C113.395 52.4414 110.938 49.9218 108.422 47.4609C107.606 46.5664 106.063 46.5273 105.215 47.3945Z" fill="#F6F0F5"/>
<path d="M105.215 47.3945C106.063 46.5273 107.606 46.5664 108.422 47.4609C110.938 49.9219 113.395 52.4414 115.915 54.8984C118.356 52.4219 120.813 49.957 123.286 47.5078C124.079 46.6055 125.583 46.5117 126.473 47.3242C127.485 48.168 127.477 49.8594 126.489 50.7226C124.047 53.207 121.544 55.6367 119.11 58.1328C121.606 60.625 124.126 63.0976 126.586 65.6289C127.516 66.5156 127.426 68.1719 126.419 68.9609C125.563 69.707 124.169 69.6484 123.387 68.8281C120.836 66.3672 118.407 63.789 115.844 61.3398C113.43 63.8281 110.958 66.2578 108.508 68.707C107.708 69.6328 106.18 69.7656 105.282 68.9101C104.254 68.0508 104.294 66.332 105.309 65.4805C107.758 63.039 110.192 60.5859 112.649 58.1523C110.211 55.5976 107.653 53.164 105.192 50.6328C104.294 49.7969 104.305 48.2187 105.215 47.3945Z" fill="#144F60"/>
<path d="M146.922 87.2109C147.453 86.4453 148.078 85.7578 148.746 85.1094C148.195 85.8594 147.578 86.5547 146.922 87.2109Z" fill="#144F60"/>
<path d="M142.934 90.9414C143.57 90.2695 144.258 89.6445 145.02 89.1172C144.367 89.7695 143.676 90.3867 142.934 90.9414Z" fill="#144F60"/>
<path opacity="0.7" d="M83.3868 162.719C84.7423 162.492 86.1251 162.652 87.4962 162.613C94.2735 162.625 101.059 162.59 107.836 162.629C109.641 162.535 110.781 164.914 109.594 166.27C108.832 167.324 107.418 167.141 106.281 167.16C98.7188 167.094 91.1524 167.254 83.5977 167.078C81.3751 166.762 81.211 163.262 83.3868 162.719Z" fill="#0C1221"/>
<path opacity="0.7" d="M83.2461 171.586C83.8593 171.371 84.5195 171.445 85.1562 171.426C92.7148 171.457 100.273 171.406 107.828 171.449C109.23 171.391 110.398 172.875 110.016 174.227C109.758 175.375 108.566 176.09 107.426 175.961C99.4922 175.918 91.5508 176.031 83.6211 175.906C81.4609 175.609 81.1718 172.254 83.2461 171.586Z" fill="#0C1221"/>
<path d="M148.746 85.1094C148.879 84.9414 149.141 84.6055 149.273 84.4375C151.309 86.4141 153.281 88.4531 155.309 90.4414C158.41 89.7773 161.812 90.7148 164.02 93.0195C173.008 101.996 181.984 110.977 190.965 119.957C193.137 122.023 194.25 125.145 193.801 128.117C193.371 131.445 190.992 134.426 187.84 135.582C184.559 136.871 180.582 136.09 178.047 133.633C173.973 129.645 170.02 125.535 165.914 121.578C160.84 116.5 155.746 111.441 150.695 106.344C148.617 104.293 147.66 101.312 147.961 98.4297C148.223 97.1094 146.863 96.4219 146.152 95.5469C144.832 94.2031 143.484 92.8867 142.168 91.543C142.359 91.3906 142.742 91.0898 142.934 90.9414C143.676 90.3867 144.367 89.7695 145.02 89.1172C145.684 88.5078 146.316 87.8711 146.922 87.2109C147.578 86.5547 148.195 85.8594 148.746 85.1094Z" fill="#FF6C1A"/>
<path opacity="0.5" d="M27.875 95.5547C42.2773 95.4688 56.6797 95.5508 71.0859 95.5157C71.8008 95.5117 72.5195 95.5235 73.2344 95.5899C72.7734 96.0117 72.3516 96.4766 71.9492 96.9571C65.1289 105.141 58.2266 113.254 51.4336 121.453C43.6094 121.563 35.7852 121.387 27.9648 121.543C20.6641 121.648 13.3594 121.563 6.05469 121.586C13.3203 112.902 20.6406 104.266 27.875 95.5547Z" fill="#FF9F29"/>
<path opacity="0.5" d="M73.5508 95.4492C80.9805 95.6914 88.4375 95.3164 95.8555 95.6406C108.098 102.277 123.637 102.309 135.875 95.6484C139.289 95.375 142.73 95.5664 146.152 95.5469C146.863 96.4219 148.223 97.1094 147.961 98.4297C147.66 101.312 148.617 104.293 150.695 106.344C155.746 111.441 160.84 116.5 165.914 121.578C161.949 121.574 157.984 121.637 154.023 121.547C136.137 121.402 118.246 121.527 100.359 121.484C98.5938 121.441 96.8047 121.641 95.0625 121.281C93.4258 119.094 91.6445 117.012 89.8047 115C89.4492 114.543 89.082 114.098 88.7344 113.637C88.4492 113.129 88.043 112.711 87.5703 112.379C87.2383 111.937 86.8984 111.504 86.5391 111.086C84.9453 109.09 83.3672 107.07 81.582 105.242C81.3438 104.91 81.1055 104.578 80.8711 104.25C80.4961 103.613 79.9883 103.078 79.3984 102.645C79.0234 102.148 78.6367 101.668 78.2383 101.195C78.1094 100.73 77.8203 100.418 77.3711 100.258C77.0508 99.8203 76.7227 99.3906 76.3711 98.9805C75.4492 97.7891 74.4961 96.6211 73.5508 95.4492Z" fill="#FF9F29"/>
<path opacity="0.75" d="M73.2353 95.5898C73.3173 95.5547 73.4735 95.4844 73.5517 95.4492C74.497 96.6211 75.4501 97.7891 76.372 98.9805C75.1532 98.4492 74.4423 97.293 73.5712 96.3555C73.4696 122.566 73.5634 148.781 73.5204 174.996C73.4775 178.113 73.6376 181.238 73.411 184.355C58.2548 184.461 43.0985 184.371 27.9423 184.398C27.954 163.445 27.9071 142.492 27.9657 121.543C35.786 121.387 43.6103 121.563 51.4345 121.453C58.2275 113.254 65.1298 105.141 71.9501 96.957C72.3525 96.4766 72.7743 96.0117 73.2353 95.5898Z" fill="#FF9F29"/>
<path d="M77.3716 100.258C77.8208 100.418 78.1099 100.73 78.2388 101.195C77.5982 101.207 77.3091 100.895 77.3716 100.258Z" fill="#E5AC39"/>
<path d="M79.3984 102.645C79.9882 103.078 80.496 103.613 80.871 104.25C79.8749 104.43 79.1914 103.594 79.3984 102.645Z" fill="#E5AC39"/>
<path d="M81.582 105.242C83.3672 107.07 84.9453 109.09 86.5391 111.086C85.1523 110.492 84.418 109.125 83.4492 108.059C82.6797 107.227 82.0039 106.301 81.582 105.242Z" fill="#E5AC39"/>
<path d="M87.5711 112.379C88.0438 112.711 88.4501 113.129 88.7352 113.637C87.911 113.938 87.3524 113.125 87.5711 112.379Z" fill="#E5AC39"/>
<path d="M89.8047 115C91.6445 117.012 93.4258 119.094 95.0625 121.281C93.9844 120.871 93.3477 119.891 92.668 119.027C91.668 117.715 90.3125 116.625 89.8047 115Z" fill="#E5AC39"/>
<path d="M73.5703 96.3555C74.4414 97.293 75.1523 98.4492 76.3711 98.9805C76.7227 99.3906 77.0508 99.8203 77.3711 100.258C77.3086 100.895 77.5977 101.207 78.2383 101.195C78.6367 101.668 79.0234 102.148 79.3984 102.645C79.1914 103.594 79.875 104.43 80.8711 104.25C81.1055 104.578 81.3438 104.91 81.582 105.242C82.0039 106.301 82.6797 107.227 83.4492 108.059C84.418 109.125 85.1523 110.492 86.5391 111.086C86.8984 111.504 87.2383 111.938 87.5703 112.379C87.3516 113.125 87.9102 113.938 88.7344 113.637C89.082 114.098 89.4492 114.543 89.8047 115C90.3125 116.625 91.668 117.715 92.668 119.027C93.3477 119.891 93.9844 120.871 95.0625 121.281C96.8047 121.641 98.5938 121.441 100.359 121.484C118.246 121.527 136.137 121.402 154.023 121.547C154.039 142.496 154.027 163.449 154.027 184.398C127.156 184.371 100.281 184.465 73.4102 184.355C73.6367 181.238 73.4766 178.113 73.5195 174.996C73.5625 148.781 73.4688 122.566 73.5703 96.3555ZM83.3867 162.719C81.2109 163.262 81.375 166.762 83.5977 167.078C91.1523 167.254 98.7188 167.094 106.281 167.16C107.418 167.141 108.832 167.324 109.594 166.27C110.781 164.914 109.641 162.535 107.836 162.629C101.059 162.59 94.2734 162.625 87.4961 162.613C86.125 162.652 84.7422 162.492 83.3867 162.719ZM83.2461 171.586C81.1719 172.254 81.4609 175.609 83.6211 175.906C91.5508 176.031 99.4922 175.918 107.426 175.961C108.566 176.09 109.758 175.375 110.016 174.227C110.398 172.875 109.23 171.391 107.828 171.449C100.273 171.406 92.7148 171.457 85.1563 171.426C84.5195 171.445 83.8594 171.371 83.2461 171.586Z" fill="#FF9F29"/>
</svg>
